HIERARCHY
ROOT Hips
{
	OFFSET -0.001795 -0.223333 0.028219
	CHANNELS 6 Xposition Yposition Zposition Zrotation Yrotation Xrotation 
	JOINT LeftUpLeg
	{
		OFFSET 0.069520 -0.091406 -0.006815
		CHANNELS 3 Zrotation Yrotation Xrotation
		JOINT LeftLeg
		{
			OFFSET 0.034277 -0.375199 -0.004496
			CHANNELS 3 Zrotation Yrotation Xrotation
			JOINT LeftFoot
			{
				OFFSET -0.013596 -0.397961 -0.043693
				CHANNELS 3 Zrotation Yrotation Xrotation
				JOINT LeftToe
				{
					OFFSET 0.026358 -0.055791 0.119288
					CHANNELS 3 Zrotation Yrotation Xrotation
					End Site
					{
						OFFSET 0.000000 0.000000 0.000000
					}
				}
			}
		}
	}
	JOINT RightUpLeg
	{
		OFFSET -0.067670 -0.090522 -0.004320
		CHANNELS 3 Zrotation Yrotation Xrotation
		JOINT RightLeg
		{
			OFFSET -0.038290 -0.382569 -0.008850
			CHANNELS 3 Zrotation Yrotation Xrotation
			JOINT RightFoot
			{
				OFFSET 0.015774 -0.398415 -0.042312
				CHANNELS 3 Zrotation Yrotation Xrotation
				JOINT RightToe
				{
					OFFSET -0.025372 -0.048144 0.123348
					CHANNELS 3 Zrotation Yrotation Xrotation
					End Site
					{
						OFFSET 0.000000 0.000000 0.000000
					}
				}
			}
		}
	}
	JOINT Spine
	{
		OFFSET -0.002533 0.108963 -0.026696
		CHANNELS 3 Zrotation Yrotation Xrotation
		JOINT Spine1
		{
			OFFSET 0.005487 0.135180 0.001092
			CHANNELS 3 Zrotation Yrotation Xrotation
			JOINT Spine2
			{
				OFFSET 0.001457 0.052922 0.025425
				CHANNELS 3 Zrotation Yrotation Xrotation
				JOINT Neck
				{
					OFFSET -0.002778 0.213870 -0.042857
					CHANNELS 3 Zrotation Yrotation Xrotation
					JOINT Head
					{
						OFFSET 0.005152 0.064970 0.051349
						CHANNELS 3 Zrotation Yrotation Xrotation
						End Site
						{
							OFFSET 0.000000 0.000000 0.000000
						}
					}
				}
				JOINT LeftShoulder
				{
					OFFSET 0.078845 0.121749 -0.034090
					CHANNELS 3 Zrotation Yrotation Xrotation
					JOINT LeftArm
					{
						OFFSET 0.090977 0.030469 -0.008868
						CHANNELS 3 Zrotation Yrotation Xrotation
						JOINT LeftForeArm
						{
							OFFSET 0.259612 -0.012772 -0.027456
							CHANNELS 3 Zrotation Yrotation Xrotation
							JOINT LeftHand
							{
								OFFSET 0.249234 0.008986 -0.001171
								CHANNELS 3 Zrotation Yrotation Xrotation
								End Site
								{
									OFFSET 0.000000 0.000000 0.000000
								}
							}
						}
					}
				}
				JOINT RightShoulder
				{
					OFFSET -0.081759 0.118833 -0.038615
					CHANNELS 3 Zrotation Yrotation Xrotation
					JOINT RightArm
					{
						OFFSET -0.096012 0.032551 -0.009143
						CHANNELS 3 Zrotation Yrotation Xrotation
						JOINT RightForeArm
						{
							OFFSET -0.253742 -0.013329 -0.021401
							CHANNELS 3 Zrotation Yrotation Xrotation
							JOINT RightHand
							{
								OFFSET -0.255298 0.007772 -0.005559
								CHANNELS 3 Zrotation Yrotation Xrotation
								End Site
								{
									OFFSET 0.000000 0.000000 0.000000
								}
							}
						}
					}
				}
			}
		}
	}
}
MOTION
Frames: 10
Frame Time: 0.050000
-0.057229 0.853739 -0.067197 -3.714490 19.526926 2.110090 2.472266 -7.209337 -46.180888 8.063876 -11.980795 52.242498 -9.907533 -20.806708 2.680592 0.000000 0.000000 0.000000 5.018646 2.753459 -31.489512 6.180455 -7.256501 50.364566 -16.797678 -41.810304 -4.296745 0.000000 0.000000 0.000000 -7.297680 -1.184967 31.201362 -13.250211 5.961422 3.022337 -2.059878 14.140277 8.354273 0.732007 3.953066 -23.993596 0.000000 0.000000 0.000000 -20.359203 -7.721542 -4.729881 -59.731098 -13.133535 0.560658 92.962920 -40.924080 -50.954788 0.000000 0.000000 0.000000 5.096238 11.922046 6.596546 62.584410 11.753304 2.195692 -52.725631 46.183693 -14.956728 0.000000 0.000000 0.000000 
-0.062582 0.851655 -0.069513 -3.688268 20.636240 2.655781 2.914553 -7.679567 -47.872939 7.190046 -11.985786 53.637430 -9.992717 -20.590537 3.151345 0.000000 0.000000 0.000000 5.190044 2.713105 -32.825756 6.109998 -7.625237 51.054458 -17.225959 -42.802467 -4.398626 0.000000 0.000000 0.000000 -7.259848 -1.323148 31.455723 -13.486322 5.974502 2.274826 -1.787761 13.405083 8.815041 0.366891 4.216168 -25.225562 0.000000 0.000000 0.000000 -19.786929 -7.449637 -4.600773 -59.486597 -13.843938 0.789181 93.095152 -38.612208 -48.654714 0.000000 0.000000 0.000000 2.826717 11.987170 5.944778 63.706942 11.103543 2.323201 -52.639939 45.008315 -14.367760 0.000000 0.000000 0.000000 
-0.066604 0.852199 -0.071200 -3.631731 21.490386 3.178446 3.300505 -7.921239 -48.712731 6.806233 -11.851735 53.574030 -10.231122 -20.693589 3.652168 0.000000 0.000000 0.000000 5.563071 2.729802 -33.772494 5.322322 -7.418709 51.643905 -16.780276 -42.142068 -4.918917 0.000000 0.000000 0.000000 -7.434894 -1.370428 31.624569 -13.659748 5.983595 1.924953 -1.513101 12.793618 8.885117 -0.472309 4.611199 -25.739032 0.000000 0.000000 0.000000 -18.608203 -7.113648 -4.273581 -59.814488 -14.709551 0.965782 92.986393 -35.711063 -45.642998 0.000000 0.000000 0.000000 1.979104 12.000029 5.699817 64.273331 9.914918 1.800071 -53.075347 43.519607 -13.837238 0.000000 0.000000 0.000000 
-0.069673 0.852604 -0.072109 -3.748406 22.232214 3.102728 3.264445 -8.090471 -48.685097 6.764835 -11.951596 53.355774 -9.905696 -20.722640 2.989274 0.000000 0.000000 0.000000 5.738868 2.697533 -34.073853 5.357458 -7.645475 51.587675 -16.751276 -42.357243 -5.312908 0.000000 0.000000 0.000000 -7.345336 -1.516831 32.049972 -14.364439 6.261489 2.139811 -1.206282 11.982263 8.260632 -1.374706 4.953102 -26.066739 0.000000 0.000000 0.000000 -17.749979 -6.972715 -3.839156 -59.164193 -16.251465 1.651002 92.666876 -32.889092 -42.400497 0.000000 0.000000 0.000000 1.555301 11.331311 5.245605 64.691135 7.991453 0.745402 -52.099741 43.128172 -13.367334 0.000000 0.000000 0.000000 
-0.072609 0.851655 -0.072686 -3.879663 22.756800 3.080146 3.709202 -8.114321 -49.018801 6.423670 -11.886899 53.552608 -9.454994 -20.857525 1.968747 0.000000 0.000000 0.000000 5.851574 2.668532 -34.386755 5.273340 -7.937749 52.437653 -16.714053 -42.371129 -5.501152 0.000000 0.000000 0.000000 -7.229246 -1.668228 32.569857 -14.930800 6.468180 1.913014 -0.879202 11.757929 8.466904 -1.999783 5.250600 -26.532256 0.000000 0.000000 0.000000 -16.552884 -7.479862 -3.174757 -58.318485 -18.746660 2.708542 91.430908 -29.501281 -38.350840 0.000000 0.000000 0.000000 0.694070 11.031543 4.874362 66.289024 6.444156 0.156326 -51.526266 42.249407 -12.781399 0.000000 0.000000 0.000000 
-0.076148 0.849568 -0.073648 -3.749418 23.546468 3.425704 3.335558 -8.531926 -49.341891 6.917642 -12.354195 53.414075 -9.461483 -20.942176 1.997946 0.000000 0.000000 0.000000 5.231947 2.388921 -34.372743 5.939396 -8.699082 52.492554 -16.860241 -43.240852 -6.304561 0.000000 0.000000 0.000000 -7.564123 -1.688457 32.838554 -15.396272 6.649981 2.528330 -0.712655 11.912424 8.201334 -2.700272 5.641412 -28.109798 0.000000 0.000000 0.000000 -15.561917 -9.146097 -2.196625 -56.938514 -21.591826 4.000043 89.997328 -25.228100 -33.731342 0.000000 0.000000 0.000000 -0.261716 11.104959 4.677761 68.023605 5.227163 -0.166646 -51.595972 40.114601 -11.835558 0.000000 0.000000 0.000000 
-0.080547 0.848445 -0.074997 -3.962966 23.475804 3.652321 3.939165 -8.516202 -50.245066 6.906177 -12.464214 54.070236 -9.419212 -20.930074 1.915410 0.000000 0.000000 0.000000 5.277436 2.409543 -34.547791 6.583479 -9.026959 52.129522 -16.840630 -43.450679 -6.678404 0.000000 0.000000 0.000000 -8.412407 -1.550851 33.749520 -15.612564 6.681359 1.287938 -0.190681 12.285725 9.441338 -3.510803 6.102421 -29.844521 0.000000 0.000000 0.000000 -15.458272 -10.488046 -1.609561 -55.036862 -24.317592 5.084246 88.179624 -20.720163 -28.543308 0.000000 0.000000 0.000000 -1.341710 12.385974 4.905622 69.545717 5.581961 0.318646 -51.197776 37.616525 -10.687421 0.000000 0.000000 0.000000 
-0.085436 0.849021 -0.076466 -4.176999 23.239017 4.445934 4.363295 -8.563216 -51.240375 7.477168 -12.642914 53.869001 -10.189245 -21.541544 3.045311 0.000000 0.000000 0.000000 5.438007 2.466287 -35.205934 7.321735 -9.149655 51.065366 -16.819063 -43.772009 -7.231534 0.000000 0.000000 0.000000 -9.115055 -1.361504 34.187801 -16.155090 6.924109 1.847100 0.029476 12.457287 8.628381 -4.375484 6.398658 -31.707074 0.000000 0.000000 0.000000 -14.961078 -11.704107 -0.893737 -53.238532 -25.445413 5.480618 86.417151 -17.041238 -24.405447 0.000000 0.000000 0.000000 -3.602437 13.407610 4.702017 71.483961 5.058917 0.636690 -50.299484 36.192528 -10.101989 0.000000 0.000000 0.000000 
-0.090378 0.851775 -0.077504 -4.450502 23.161837 5.247385 5.049528 -8.446756 -51.952748 7.858974 -12.560492 53.114535 -10.432699 -21.820576 3.375112 0.000000 0.000000 0.000000 5.967985 2.614713 -35.582678 7.553273 -8.952599 49.899557 -17.205964 -44.522265 -6.915131 0.000000 0.000000 0.000000 -10.116823 -1.148739 35.104880 -16.068701 6.831526 1.123573 0.196537 12.624665 9.194426 -5.398555 6.796331 -33.290014 0.000000 0.000000 0.000000 -15.434729 -12.790542 -0.573107 -51.315691 -25.888714 5.592651 84.521913 -13.722096 -20.724316 0.000000 0.000000 0.000000 -4.768694 14.461377 4.788118 71.918814 5.513141 1.108821 -50.070318 35.922235 -9.992435 0.000000 0.000000 0.000000 
-0.095408 0.855004 -0.078052 -5.026483 21.965174 6.038090 6.276423 -7.743490 -52.429708 8.214834 -12.181878 52.300462 -10.868453 -22.127845 3.979047 0.000000 0.000000 0.000000 7.118982 3.101041 -36.319250 7.232477 -8.026666 48.838530 -16.749675 -43.658256 -7.188798 0.000000 0.000000 0.000000 -11.281047 -0.693724 35.864030 -16.294767 6.936981 0.895478 0.400465 13.108324 8.802638 -5.890431 6.903791 -34.130931 0.000000 0.000000 0.000000 -14.388244 -11.764056 -0.690983 -51.502962 -26.147853 5.507725 82.459590 -11.591280 -18.129286 0.000000 0.000000 0.000000 -6.576777 14.320821 4.252218 72.755272 5.501736 1.553335 -50.720721 37.122390 -10.709320 0.000000 0.000000 0.000000 
